<?xml version="1.0" encoding="UTF-8" standalone="no"?>
<!-- Created with Inkscape (http://www.inkscape.org/) -->

<svg
   xmlns:dc="http://purl.org/dc/elements/1.1/"
   xmlns:cc="http://creativecommons.org/ns#"
   xmlns:rdf="http://www.w3.org/1999/02/22-rdf-syntax-ns#"
   xmlns:svg="http://www.w3.org/2000/svg"
   xmlns="http://www.w3.org/2000/svg"
   xmlns:sodipodi="http://sodipodi.sourceforge.net/DTD/sodipodi-0.dtd"
   xmlns:inkscape="http://www.inkscape.org/namespaces/inkscape"
   version="1.1"
   width="1024"
   height="939"
   id="svg2985"
   inkscape:version="0.48.5 r10040"
   sodipodi:docname="deGravityVectorLogo.svg">
  <sodipodi:namedview
     pagecolor="#ffffff"
     bordercolor="#666666"
     borderopacity="1"
     objecttolerance="10"
     gridtolerance="10"
     guidetolerance="10"
     inkscape:pageopacity="0"
     inkscape:pageshadow="2"
     inkscape:window-width="1600"
     inkscape:window-height="837"
     id="namedview6"
     showgrid="false"
     inkscape:zoom="0.69222577"
     inkscape:cx="339.36846"
     inkscape:cy="469.5"
     inkscape:window-x="-8"
     inkscape:window-y="-8"
     inkscape:window-maximized="1"
     inkscape:current-layer="svg2985" />
  <metadata
     id="metadata2991">
    <rdf:RDF>
      <cc:Work
         rdf:about="">
        <dc:format>image/svg+xml</dc:format>
        <dc:type
           rdf:resource="http://purl.org/dc/dcmitype/StillImage" />
        <dc:title />
      </cc:Work>
    </rdf:RDF>
  </metadata>
  <defs
     id="defs2989" />
  <path class="logo"
     d="m 731.04508,807.9624 c -2.47283,-1.07381 -10.47946,-3.42915 -17.79247,-5.23413 -16.12376,-3.97955 -27.93612,-10.03735 -34.81854,-17.85619 -7.21386,-8.19539 -9.48939,-13.72601 -10.73622,-26.09413 -0.99923,-9.91193 -1.54269,-11.33971 -6.96089,-18.2879 -9.82793,-12.60315 -10.99229,-13.13008 -29.15154,-13.19246 -19.56584,-0.0673 -27.02531,-2.68365 -41.58109,-14.58476 -8.16247,-6.67381 -11.21968,-10.30668 -15.99619,-19.00818 -7.68557,-14.00099 -10.44068,-20.08335 -15.18243,-33.51777 -3.96217,-11.22565 -13.33453,-27.35347 -17.13041,-29.47776 -1.79416,-1.00405 -24.29956,-7.90801 -41.61697,-12.7668 -3.03675,-0.85203 -7.57507,-2.92967 -10.08516,-4.61699 -2.51008,-1.68731 -7.58934,-4.79353 -11.28724,-6.90272 -9.8372,-5.61088 -14.98157,-10.96144 -21.73446,-22.60558 -11.1192,-19.17304 -23.14813,-29.9687 -40.79349,-36.61108 -5.54682,-2.08804 -11.90047,-4.87439 -14.11921,-6.19188 -4.83829,-2.87298 -18.90896,-6.65482 -24.75989,-6.65482 -2.31076,0 -8.53127,1.51276 -13.82335,3.36171 -11.88646,4.15288 -13.54135,4.15513 -21.92767,0.0296 -3.69789,-1.81905 -8.53875,-3.32201 -10.7575,-3.33991 -5.26192,-0.0424 -47.4299,-12.65911 -57.80663,-17.29577 -10.92961,-4.8837 -18.05963,-12.34104 -22.11292,-23.12804 -4.17675,-11.11553 -9.69629,-22.31767 -15.39859,-31.252 -2.47127,-3.87197 -6.05615,-10.13234 -7.96642,-13.91196 -4.35638,-8.61935 -16.48487,-22.0387 -19.91875,-22.0387 -1.42118,0 -6.61394,1.82728 -11.53947,4.06061 -11.3268,5.13582 -22.48175,8.04252 -30.8478,8.03818 -6.88696,-0.004 -25.3245,-4.49845 -42.09845,-10.26317 -8.57628,-2.9474 -10.73004,-3.23087 -14.94757,-1.96727 -7.95197,2.38249 -13.793012,1.73925 -24.308831,-2.67699 -13.809433,-5.79942 -17.289566,-9.53054 -18.505107,-19.83971 -0.533585,-4.52542 -1.233867,-8.43706 -1.556172,-8.69258 -0.32229,-0.2555 -2.824653,-1.81035 -5.560792,-3.45521 -6.442636,-3.87308 -10.083085,-9.90553 -11.239758,-18.62492 -0.705615,-5.3192 -1.710922,-7.51237 -4.187215,-9.13489 -4.626401,-3.03134 -8.498097,-9.96449 -8.503968,-15.22832 -0.01308,-11.85272 15.987806,-22.25772 42.688775,-27.75923 2.403632,-0.49525 4.37023,-1.63925 4.37023,-2.54223 0,-1.4299 -7.033506,-10.00403 -17.230173,-21.00423 -4.417068,-4.76514 -6.690116,-9.47174 -8.897349,-18.42277 -1.98299,-8.04172 -8.200555,-24.09249 -10.392181,-26.82766 -0.682247,-0.85144 -4.562547,-3.22891 -8.622898,-5.28326 -19.424516,-9.8279 -31.5071871,-32.9849 -31.5024642,-60.37596 0.00436,-20.1175 5.4516572,-26.92077 21.5587262,-26.92077 9.003113,0 9.343481,-0.12526 12.704349,-4.67711 6.080223,-8.23472 12.539818,-10.13136 18.510368,-5.43492 4.611448,3.62737 10.273833,5.63476 13.23933,4.69355 1.352622,-0.4293 4.557867,-4.22664 7.122732,-8.43853 5.723144,-9.39821 11.946798,-15.89843 15.955749,-16.66478 8.821729,-1.68639 15.009999,3.35169 23.154569,18.85087 3.21363,6.11554 7.4147,11.41012 12.84922,16.19378 9.21172,8.10848 12.42657,13.59622 14.68092,25.06025 0.87261,4.43747 2.73987,11.69878 4.14946,16.13625 3.40676,10.7246 9.36173,40.6895 9.38669,47.233 0.0267,7.01649 3.40844,20.93815 6.61077,27.21524 3.24641,6.36353 18.05056,27.21811 21.60473,30.43458 2.11253,1.91182 2.75198,2.01553 3.2183,0.52198 0.32008,-1.02514 1.24036,-3.9208 2.04507,-6.43479 0.80472,-2.51399 1.46311,-7.07537 1.46311,-10.13639 0,-11.71237 9.1399,-22.68077 20.40012,-24.48137 2.8319,-0.45283 5.14894,-1.22297 5.14894,-1.71141 0,-0.48844 -2.70336,-3.14779 -6.00748,-5.90969 -7.40339,-6.18848 -9.30138,-12.12098 -8.02431,-25.0813 0.70755,-7.18058 0.38947,-10.55668 -1.44785,-15.36767 -4.91262,-12.86351 -0.0262,-26.21509 13.09469,-35.78014 4.56537,-3.3281 10.57962,-9.35297 13.36502,-13.3886 6.60654,-9.57189 11.35431,-12.03525 23.30944,-12.09393 16.60236,-0.0815 26.01785,2.14604 33.75152,7.98504 3.78799,2.85995 12.56871,7.86218 19.51271,11.11605 16.35196,7.66235 26.27973,16.56757 31.41224,28.17682 5.52802,12.50393 7.79729,14.51117 16.40558,14.51117 6.22235,0 7.81685,0.58955 12.20396,4.51234 6.65201,5.94798 9.04678,7.05379 17.65048,8.1503 9.9667,1.2702 27.70116,10.30663 30.37503,15.47732 1.12114,2.16806 3.24572,4.3251 4.72127,4.79343 3.30647,1.04944 10.84043,10.18079 14.66546,17.77497 4.65371,9.23939 3.6617,15.78182 -3.56888,23.53697 -4.99461,5.35699 -2.82921,7.16644 17.37569,14.51955 17.7464,6.4584 25.35126,18.74813 25.35126,40.96851 0,6.95458 0.52891,12.97159 1.17535,13.37112 0.64644,0.39951 5.03349,-1.79249 9.74898,-4.87115 10.08255,-6.58269 21.00143,-10.81016 39.50143,-15.29377 20.2787,-4.9147 34.59848,-3.91537 44.61347,3.11343 2.0874,1.465 6.2157,3.42468 9.17402,4.35486 2.9583,0.93017 8.45873,3.42361 12.22315,5.54097 6.48834,3.64944 10.93415,4.90637 36.06921,10.19758 9.28663,1.95493 11.76854,2.0129 19.49796,0.45524 14.03672,-2.82867 31.46893,-3.26953 35.97456,-0.90979 11.2552,5.89474 12.49424,11.98613 4.96537,24.41102 -2.68887,4.43747 -6.54686,11.69878 -8.57329,16.13625 -5.14769,11.27234 -9.4528,14.77089 -24.86777,20.20867 -10.1682,3.58694 -15.36802,4.66803 -22.45208,4.66803 -9.89129,0 -9.68477,-0.1567 -11.11338,8.43305 -1.68104,10.10759 -11.63985,17.11601 -24.32144,17.11601 -2.82996,0 -10.85136,-1.0192 -17.82532,-2.26486 l -12.67995,-2.26486 -6.89538,3.90572 c -9.93962,5.63002 -20.20158,5.26219 -38.36565,-1.37526 -5.08045,-1.85648 -7.37165,-1.93799 -16.13624,-0.574 -5.61828,0.87436 -10.76424,2.08793 -11.4355,2.69684 -2.58914,2.34871 2.13742,4.90708 10.30981,5.58043 11.15529,0.91913 28.69171,8.13972 42.33667,17.43199 10.28827,7.00635 11.38089,7.42531 21.39329,8.20294 5.80322,0.45071 13.27428,0.28901 16.60238,-0.35935 3.33247,-0.6492 8.76971,-0.6744 12.10219,-0.0561 3.3281,0.61751 11.79961,1.52211 18.82561,2.01025 15.95878,1.10875 26.44276,2.82357 37.65123,6.15847 4.80725,1.43031 14.48901,3.81406 21.515,5.29722 7.51841,1.58711 17.20072,4.8508 23.53201,7.93214 5.91662,2.87952 15.29582,7.22307 20.84265,9.65237 14.93108,6.53919 43.89255,27.56296 53.38363,38.75235 11.35755,13.38988 34.17821,25.20386 62.67389,32.44553 9.01679,2.29146 19.76195,5.03343 23.87815,6.09328 8.86968,2.28378 21.09113,2.50412 26.38181,0.47563 2.08199,-0.79824 8.6263,-1.98336 14.54292,-2.63357 15.25935,-1.67695 47.83189,-6.57286 49.15034,-7.38771 0.60941,-0.37664 6.9397,-2.12934 14.0673,-3.89488 11.76449,-2.91412 13.38583,-3.70844 17.58625,-8.6157 7.50511,-8.76803 17.16721,-10.33455 26.94643,-4.36882 2.8908,1.7635 5.6717,5.65879 8.8771,12.43444 6.7009,14.16432 7.081,17.82654 3.5846,34.53686 -4.5075,21.54254 -5.1619,22.04251 -46.92658,35.85741 -10.20969,3.37716 -19.57588,5.48693 -27.56607,6.20938 -6.6562,0.60184 -17.24563,1.71171 -23.53203,2.46638 -22.14939,2.65899 -35.74217,1.85931 -55.41049,-3.25988 -23.59482,-6.14116 -51.05931,-15.73701 -57.26813,-20.00895 -4.76364,-3.27763 -40.31998,-19.57296 -47.33913,-21.69536 -1.84895,-0.55907 -10.82736,-4.88014 -19.952,-9.60237 -9.12467,-4.72222 -17.65275,-8.58587 -18.95129,-8.58587 -4.76419,0 -17.77863,-5.37985 -31.2839,-12.93199 -47.39164,-26.50138 -58.35634,-31.00697 -88.31703,-36.29089 -17.73753,-3.12825 -20.33915,-3.15764 -20.33915,-0.22984 0,2.06197 16.74829,26.79101 20.48266,30.24285 5.39685,4.98856 20.05732,12.17236 39.20055,19.20873 10.26863,3.77437 21.46808,8.28029 24.88767,10.01311 3.41959,1.73285 11.05336,5.05703 16.96396,7.38708 5.91058,2.33005 14.97852,7.08362 20.15096,10.56346 8.74774,5.8852 9.82847,7.1721 15.47703,18.42919 3.33993,6.6562 10.24428,17.53591 15.34295,24.17714 5.09869,6.64122 11.91012,16.19328 15.13651,21.22676 3.22639,5.0335 9.58272,13.81983 14.12519,19.52518 9.79484,12.30238 12.68,18.34481 15.3015,32.04606 1.07631,5.62539 2.92026,13.54173 4.09767,17.59186 1.76593,6.07459 1.86466,8.46153 0.56388,13.63282 -5.21127,20.71776 -21.48689,35.25914 -39.31638,35.12701 -3.90654,-0.0289 -9.12604,-0.93121 -11.59887,-2.00503 z m 22.88098,-19.80339 c 3.35408,-2.5245 7.17709,-7.11389 9.02411,-10.8331 3.14911,-6.34116 3.16755,-6.59736 1.06351,-14.78168 -1.17763,-4.58077 -2.83205,-11.95932 -3.67649,-16.39679 -1.92995,-10.14176 -6.04108,-17.79748 -15.52511,-28.91076 -4.10249,-4.80727 -8.39656,-10.5558 -9.54239,-12.77453 -2.65571,-5.14239 -12.63257,-19.27436 -20.64995,-29.25017 -3.41915,-4.25432 -8.38487,-12.17957 -11.03494,-17.61164 -2.65008,-5.43206 -6.80797,-11.55066 -9.23977,-13.59688 -6.52259,-5.4884 -26.77723,-14.69507 -63.68947,-28.94981 -27.68567,-10.69163 -39.63302,-17.47408 -46.53136,-26.4156 -11.56898,-14.99557 -22.72001,-35.16174 -22.72001,-41.08821 0,-10.06625 7.50328,-15.87997 20.4949,-15.87997 12.36641,0 42.52089,6.06802 56.8246,11.43488 12.45432,4.67296 56.26251,26.99609 66.17698,33.7215 2.37676,1.61225 9.33552,4.26479 15.4639,5.89452 6.12838,1.62975 17.3879,6.24533 25.02114,10.2569 7.63327,4.01157 18.22268,9.0413 23.53203,11.17718 19.95256,8.02666 39.39801,16.79287 44.02189,19.84551 6.36032,4.19902 37.7224,15.4669 55.92995,20.09469 17.38663,4.41916 28.39836,4.73722 58.28947,1.68363 20.56843,-2.10119 34.80969,-5.62658 61.18324,-15.14576 7.84519,-2.83162 8.1346,-3.11124 10.47372,-10.1192 5.88969,-17.64524 4.24079,-24.78762 -6.07798,-26.32814 -4.55623,-0.68019 -7.26608,-0.1459 -13.1362,2.59004 -4.06768,1.89585 -8.77239,3.45293 -10.45492,3.46015 -1.68252,0.007 -6.52339,1.23586 -10.75748,2.7303 -7.87854,2.78076 -47.49883,9.37338 -56.48946,9.39957 -2.74801,0.009 -7.96682,0.91567 -11.59736,2.01702 -7.57538,2.29808 -32.31135,2.73457 -37.75164,0.66619 -1.93312,-0.73498 -6.6621,-1.86862 -10.50887,-2.5192 -23.83169,-4.03061 -58.5825,-18.4294 -73.42913,-30.42492 -5.24688,-4.2393 -9.5398,-8.24645 -9.5398,-8.9048 0,-2.55592 -35.9531,-29.89914 -44.37468,-33.74804 -4.80725,-2.19704 -14.35746,-6.72557 -21.22266,-10.06338 -13.53393,-6.58008 -46.8251,-15.85905 -64.83729,-18.07156 -5.54684,-0.68133 -14.62347,-1.8286 -20.17032,-2.54947 -5.54682,-0.72089 -20.06944,-1.2321 -32.27248,-1.13601 -25.08247,0.19749 -25.86823,0.007 -39.90454,-9.6716 -15.25542,-10.51926 -26.0351,-14.86576 -39.89972,-16.08811 -10.40575,-0.9174 -12.38391,-1.51485 -15.77619,-4.76487 -8.71646,-8.35089 -10.52149,-24.91454 -3.38411,-31.05385 4.79865,-4.12762 11.15494,-5.65519 27.75554,-6.67029 12.49044,-0.76376 14.9123,-0.54244 20.34057,1.85874 3.38909,1.49915 9.12239,3.13289 12.74067,3.63052 5.83232,0.80215 7.18607,0.47598 11.93193,-2.87485 4.60738,-3.25307 6.57095,-3.76307 14.09366,-3.66059 4.80727,0.0655 13.58134,1.07249 19.49796,2.23778 14.049,2.76699 17.16477,1.55572 18.21498,-7.08111 0.40371,-3.32015 1.44173,-7.31923 2.3067,-8.88687 2.5971,-4.70691 10.7414,-7.66536 22.90877,-8.32169 7.52384,-0.40587 14.30708,-1.76432 20.82695,-4.17097 l 9.669,-3.56907 6.37532,-11.38666 c 3.50642,-6.26265 6.38775,-11.85946 6.40297,-12.43736 0.0673,-2.55765 -5.04583,-2.46006 -16.11793,0.30762 -10.88817,2.72169 -12.99888,2.84857 -24.37565,1.4653 -19.7622,-2.40285 -40.82963,-7.93645 -47.1676,-12.38912 -2.00524,-1.40876 -6.96811,-3.70438 -11.02861,-5.10141 -4.06051,-1.397 -9.98373,-4.02217 -13.16272,-5.8337 -8.10291,-4.61739 -13.1406,-5.21506 -24.30627,-2.88374 -26.12675,5.45511 -45.47025,14.36647 -47.32606,21.80264 -1.28291,5.14059 -4.56935,8.38953 -8.48633,8.38953 -1.82918,0 -6.42499,1.7423 -10.2129,3.87176 -3.78792,2.12947 -10.21522,4.93135 -14.28291,6.22641 -8.5015,2.7067 -18.74072,12.11578 -22.20347,20.40332 -2.91158,6.96839 -5.83521,9.83911 -10.02042,9.83911 -6.29004,0 -8.45309,-2.8347 -9.63137,-12.6221 -0.8202,-6.81298 -2.55223,-11.67833 -7.17896,-20.16618 -7.04708,-12.92807 -8.04123,-21.15731 -3.463,-28.66586 4.86545,-7.97962 8.97591,-9.14198 32.32692,-9.14142 12.34605,2.9e-4 21.24539,-0.54787 21.83058,-1.34469 1.63445,-2.22553 1.15748,-10.50988 -1.02901,-17.87261 -2.45723,-8.27442 -7.29792,-12.43226 -18.11219,-15.55728 -8.40414,-2.42855 -27.28482,-14.04665 -29.47357,-18.13636 -2.81408,-5.25814 -1.65336,-9.51661 4.37806,-16.06238 7.52646,-8.16829 7.99273,-9.75372 4.47945,-15.23072 -1.60379,-2.50018 -4.13081,-6.95884 -5.6156,-9.90812 -1.51816,-3.01549 -3.87216,-5.57499 -5.37875,-5.84828 -1.47352,-0.2673 -6.71375,-2.24129 -11.64496,-4.38668 -5.9364,-2.58268 -11.22942,-3.90069 -15.66494,-3.90069 -5.49963,0 -7.98733,-0.87937 -13.89384,-4.91127 -4.44391,-3.0335 -9.75845,-5.33531 -13.90011,-6.02035 -4.2273,-0.69919 -9.43047,-2.98401 -14.07905,-6.1824 -6.51111,-4.47986 -7.86228,-6.25302 -11.55084,-15.15846 -2.29746,-5.54683 -6.09532,-12.03239 -8.43968,-14.41235 -2.34434,-2.37996 -10.48449,-7.29863 -18.08922,-10.93036 -7.60471,-3.63173 -15.81465,-8.27585 -18.2443,-10.32026 -3.52727,-2.96801 -6.83779,-4.07686 -16.42719,-5.50229 -6.60531,-0.98182 -12.94118,-1.42769 -14.07972,-0.9908 -1.13852,0.43689 -3.88939,3.43868 -6.11305,6.67067 -2.22365,3.23197 -8.26073,9.28407 -13.4157,13.4491 -5.25481,4.24569 -9.73277,9.00744 -10.19227,10.83821 -0.45075,1.79598 0.2425,6.64195 1.54057,10.76888 1.74883,5.56002 2.15786,9.91592 1.57923,16.81791 -0.42949,5.12296 -0.4459,10.18746 -0.0365,11.25444 0.95361,2.48511 4.26131,2.46045 10.33444,-0.077 10.31608,-4.31035 21.21866,-1.77316 36.47259,8.48768 11.36324,7.64367 19.99395,17.94269 23.01306,27.46141 1.23525,3.8945 2.50662,12.82942 2.82529,19.85542 0.73663,16.24041 -1.12835,19.89026 -12.29892,24.06972 -14.32496,5.35965 -22.69115,2.51509 -28.34987,-9.63921 -1.80135,-3.86911 -3.28112,-7.78184 -3.28834,-8.69499 -0.009,-1.21464 -2.08836,-1.45036 -7.74509,-0.87828 -6.65302,0.67283 -8.38867,0.3416 -12.43836,-2.37383 -2.8551,-1.91441 -6.02875,-5.9257 -8.06811,-10.1976 -1.84895,-3.87302 -4.20563,-7.36698 -5.23705,-7.76437 -3.35181,-1.2914 -6.86514,3.388 -6.86514,9.14369 0,2.94277 -0.72048,7.75527 -1.60107,10.69442 l -1.60109,5.34393 6.64366,5.8528 c 3.66442,3.22822 9.65868,6.84928 13.36709,8.07494 3.6979,1.22218 10.54613,4.32397 15.21832,6.89286 13.00341,7.14963 17.05744,15.98659 10.39185,22.65216 -4.19197,4.19198 -11.1206,4.34098 -24.96485,0.53683 -18.91215,-5.19674 -31.28974,-12.30374 -45.58042,-26.1715 -17.64182,-17.11975 -32.90938,-39.45445 -37.27606,-54.53064 -1.74707,-6.03179 -3.1773,-13.16747 -3.17831,-15.8571 -0.003,-8.24193 -6.13547,-39.30499 -9.5135,-48.18989 -0.77038,-2.02628 -2.23554,-8.04743 -3.2559,-13.38037 -2.40798,-12.58539 -4.49489,-16.39399 -12.78735,-23.33682 -4.44684,-3.72311 -8.74177,-9.19233 -12.277,-15.63373 -2.99063,-5.44906 -6.000115,-9.90735 -6.687753,-9.90735 -0.687654,0 -3.913549,4.11698 -7.16864,9.14885 -8.232467,12.72612 -15.559301,15.58446 -30.280529,11.81306 -4.586307,-1.17497 -8.563346,-2.13629 -8.837884,-2.13629 -0.274509,0 -2.338791,2.67387 -4.587295,5.94194 -5.069509,7.36826 -10.050446,8.87242 -17.803387,5.37635 -6.987222,-3.15081 -8.194466,-1.46649 -7.308495,10.1967 1.562943,20.57453 9.470984,34.5645 23.886532,42.25707 13.039398,6.95823 15.697239,9.59583 18.10664,17.96878 1.215615,4.22447 3.293208,9.82687 4.616839,12.44979 1.323631,2.62293 2.839374,7.16124 3.368294,10.08515 1.356546,7.49907 2.69978,9.6913 13.978048,22.81326 8.515172,9.90717 11.579879,12.43489 20.53665,16.93827 5.79034,2.91132 11.7245,6.48993 13.18707,7.9525 3.89827,3.89827 3.43856,9.91905 -1.02546,13.43046 -3.3367,2.62465 -4.67584,2.8106 -14.18106,1.9692 -8.908031,-0.78855 -12.815927,-0.37253 -25.824242,2.7492 -15.976543,3.83404 -23.544405,7.26894 -23.544405,10.68634 0,1.10616 1.514567,2.39131 3.365693,2.85591 1.851113,0.4646 4.929335,2.70303 6.840479,4.97431 2.736967,3.25269 3.293454,5.00612 2.620682,8.25752 -2.049358,9.90417 -1.804843,10.57273 5.06903,13.85945 7.355215,3.51686 10.641767,9.23108 10.145616,17.63988 -0.387989,6.5757 0.611666,7.95801 8.077019,11.16875 5.085059,2.18699 7.607127,2.48886 13.634908,1.63191 9.32475,-1.32566 13.33152,-0.91566 23.47067,2.40166 9.05717,2.96333 11.60474,3.69733 26.70574,7.69441 13.0406,3.45173 18.89125,2.50066 37.07212,-6.02637 6.94011,-3.25499 14.50397,-5.90315 16.80858,-5.88483 8.294,0.066 26.16702,17.22888 33.9631,32.61368 1.91755,3.78409 6.33986,11.45023 9.82738,17.03586 6.30063,10.09109 7.70933,12.9385 14.64986,29.61141 2.99253,7.18889 4.66655,9.34126 9.64721,12.40393 6.2574,3.84777 42.37224,15.16938 54.8564,17.19688 3.92961,0.63821 10.14316,2.2386 13.80791,3.55642 6.42879,2.31176 6.9816,2.30696 15.71495,-0.13602 4.97845,-1.3926 11.48452,-2.77628 14.4579,-3.0748 6.69361,-0.67204 25.15851,3.80622 33.84647,8.20874 3.56876,1.80845 11.37831,5.1737 17.35449,7.47837 18.30464,7.05901 28.76775,16.67045 44.45048,40.83226 9.01725,13.89257 12.42145,16.8168 29.21567,25.09626 4.52623,2.23142 17.23932,6.60967 28.25132,9.72944 11.01203,3.11977 21.8969,6.93591 24.18863,8.48029 5.89896,3.97533 17.45691,23.41949 22.39996,37.68396 2.30658,6.6562 6.18016,15.73285 8.60796,20.1703 2.42783,4.43747 5.73657,10.48856 7.35279,13.44688 3.94197,7.21528 11.05634,13.37324 21.24537,18.3893 7.80238,3.84111 9.11344,4.08161 17.65886,3.23957 6.56524,-0.64692 12.10375,-0.26906 19.18013,1.30858 9.43515,2.10348 10.41161,2.686 18.891,11.26967 11.56013,11.70229 15.70962,19.86859 16.82991,33.12161 0.59981,7.09548 1.73589,11.50467 3.72802,14.46841 4.13836,6.15678 14.51072,12.44964 24.78205,15.03518 4.9053,1.23477 12.24684,3.31511 16.31451,4.62297 11.98224,3.8526 17.66323,3.47547 24.436,-1.62219 z M 430.73115,382.74579 440.953,377.7032 430.36521,377.30657 c -12.57782,-0.4712 -14.18723,-0.004 -14.18723,4.11957 0,2.73393 2.15529,6.36223 3.77929,6.36223 0.30362,0 5.15186,-2.26917 10.77388,-5.04258 z M 277.0624,310.21724 c 1.81846,-1.81846 2.09836,-3.71749 1.41053,-9.56993 -1.86403,-15.86005 -10.21191,-27.17992 -25.31177,-34.32332 -9.05718,-4.28472 -11.69667,-4.42485 -18.2495,-0.9688 -2.73505,1.44249 -6.12971,2.97385 -7.54368,3.40304 -2.29417,0.69633 -2.05532,1.25256 2.21918,5.16783 2.63451,2.41313 5.73068,6.63879 6.88036,9.39036 l 2.09034,5.00289 7.30244,-0.85828 c 5.71479,-0.67167 8.18544,-0.33665 11.36382,1.54086 4.31447,2.54863 8.72725,9.43748 10.30078,16.08071 1.7616,7.4372 5.31951,9.35266 9.5375,5.13464 z"
     id="path2995"
     style="fill:#000000"
     inkscape:connector-curvature="0" />
</svg>
